<svg xmlns="http://www.w3.org/2000/svg" xmlns:xlink="http://www.w3.org/1999/xlink" x="0px" y="0px" width="64px" height="64px" viewBox="0 0 64 64"><g  transform="translate(0.5, 0.5)">
<path fill="none" stroke="#2185d0" stroke-width="1" stroke-linecap="round" stroke-miterlimit="10" d="M32,34L32,34
c-7.732,0-14-6.268-14-14v-4c0-7.732,6.268-14,14-14h0c7.732,0,14,6.268,14,14v4C46,27.732,39.732,34,32,34z" stroke-linejoin="round"/>
<path fill="none" stroke="#2185d0" stroke-width="1" stroke-linecap="round" stroke-miterlimit="10" d="M36,44H20
c-9.941,0-18,8.059-18,18c0,0,57.944,0,58,0" stroke-linejoin="round"/>
<line data-color="color-2" fill="none" stroke="#2185d0" stroke-width="1" stroke-linecap="round" stroke-miterlimit="10" x1="54" y1="36" x2="54" y2="52" stroke-linejoin="round"/>
<line data-color="color-2" fill="none" stroke="#2185d0" stroke-width="1" stroke-linecap="round" stroke-miterlimit="10" x1="46" y1="44" x2="62" y2="44" stroke-linejoin="round"/>
</g></svg>