<?xml version="1.0" encoding="UTF-8"?>
<svg width="36px" height="41px" viewBox="0 0 36 41" version="1.1" xmlns="http://www.w3.org/2000/svg" xmlns:xlink="http://www.w3.org/1999/xlink">
    <!-- Generator: Sketch 43.2 (39069) - http://www.bohemiancoding.com/sketch -->
    <title>Group 4</title>
    <desc>Created with Sketch.</desc>
    <defs></defs>
    <g id="Page-1" stroke="none" stroke-width="1" fill="none" fill-rule="evenodd">
        <g id="Group-4">
            <path d="M7.33017386,0.5 L27.5,0.5 L27.5,33.5 L0.5,33.5 L0.5,9.46563325 L7.33017386,0.5 Z" id="Rectangle-17" stroke="#292A2D"></path>
            <circle id="Oval" stroke="#292A2D" fill="#FFFFFF" cx="27.5" cy="32.5" r="7.5"></circle>
            <path d="M27.2,32.2 L23,32.2 L23,32.8 L27.2,32.8 L27.2,37 L27.8,37 L27.8,32.8 L32,32.8 L32,32.2 L27.8,32.2 L27.8,28 L27.2,28 L27.2,32.2 Z" id="Combined-Shape" fill="#292A2D"></path>
            <path d="M4.5,6.5 L23.5262976,6.5" id="Line" stroke="#979797" stroke-linecap="square"></path>
            <path d="M4.5,11.5 L23.5262976,11.5" id="Line" stroke="#979797" stroke-linecap="square"></path>
            <path d="M4.5,16.5 L23.5262976,16.5" id="Line" stroke="#979797" stroke-linecap="square"></path>
            <polygon id="Path-2" fill="#FFFFFF" points="3.10827637 7.390625 4.33520508 5.1965332 7.44348145 5.37011719 7.36437988 7.68566895"></polygon>
            <path d="M4.5,21.5 L23.5262976,21.5" id="Line" stroke="#979797" stroke-linecap="square"></path>
            <path d="M7.5,1.5 L7.5,9.75" id="Line" stroke="#292A2D" stroke-linecap="square"></path>
            <path d="M0.530029297,9.76647949 L7.4300293,9.76647949" id="Line" stroke="#292A2D" stroke-linecap="square"></path>
        </g>
    </g>
</svg>